# xmcd CD database file
#
# Track frame offsets:
#	150
#	14262
#	31452
#	48365
#	67825
#	81837
#
# Disc length: 1347 seconds
#
# Revision: 0
# Processed by: cddbd v1.5.1PL0 Copyright (c) Steve Scherf et al.
# Submitted via: CDex 1.51
#
DISCID=40054106
DTITLE=倖田來未 - LOVE and HONEY
DYEAR=2004
DGENRE=JPop
TTITLE0=キューティーハニー
TTITLE1=The Theme Of Sister Jill 〜Love and Honey Version〜
TTITLE2=夜霧のハニー
TTITLE3=Into Your Heart
TTITLE4=キューティーハニー (Instrumental)
TTITLE5=Into Your Heart (Instrumental)
EXTD=YEAR: 2004
EXTT0=
EXTT1=
EXTT2=
EXTT3=
EXTT4=
EXTT5=
PLAYORDER=
